M48
; DRILL file {KiCad (5.1.6-0-10_14)} date Monday, June 01, 2020 at 07:36:43 PM
; FORMAT={-:-/ absolute / inch / decimal}
; #@! TF.CreationDate,2020-06-01T19:36:43+10:00
; #@! TF.GenerationSoftware,Kicad,Pcbnew,(5.1.6-0-10_14)
; #@! TF.FileFunction,Plated,1,2,PTH
FMAT,2
INCH
T1C0.0157
T2C0.0276
T3C0.0295
T4C0.0315
T5C0.0354
T6C0.0394
T7C0.0400
T8C0.0433
T9C0.0472
T10C0.0512
%
G90
G05
T1
X5.0Y-3.19
T2
X4.86Y-5.37
X4.86Y-5.57
X6.558Y-3.777
X6.758Y-3.777
X4.838Y-3.643
X5.038Y-3.643
X5.889Y-4.456
X6.089Y-4.456
X4.806Y-3.949
X5.006Y-3.949
X3.485Y-4.983
X3.685Y-4.983
X5.88Y-5.37
X5.88Y-5.57
X8.079Y-2.981
X8.279Y-2.981
X3.485Y-4.568
X3.685Y-4.568
X8.546Y-2.981
X8.746Y-2.981
X5.118Y-3.949
X5.318Y-3.949
X3.224Y-5.213
X3.424Y-5.213
X3.84Y-5.37
X3.84Y-5.57
X5.138Y-3.643
X5.338Y-3.643
X3.225Y-4.752
X3.425Y-4.752
X2.79Y-5.37
X2.79Y-5.57
X4.264Y-4.99
X4.464Y-4.99
X4.93Y-4.29
X5.13Y-4.29
X7.93Y-5.31
X8.13Y-5.31
T3
X4.634Y-3.787
X4.684Y-3.787
X4.734Y-3.787
X4.927Y-3.428
X4.977Y-3.428
X5.027Y-3.428
X3.223Y-4.977
X3.273Y-4.977
X3.323Y-4.977
X3.223Y-4.568
X3.273Y-4.568
X3.323Y-4.568
T4
X6.5748Y-4.9213
X6.7717Y-4.9213
X8.1102Y-4.5669
X8.3071Y-4.5669
X7.85Y-4.118
X7.9484Y-4.118
X7.3622Y-4.9213
X7.5591Y-4.9213
X4.1648Y-4.3016
X4.1648Y-4.6016
X4.2648Y-4.3016
X4.2648Y-4.6016
X4.3648Y-4.3016
X4.3648Y-4.6016
X4.4648Y-4.3016
X4.4648Y-4.6016
X4.5648Y-4.3016
X4.5648Y-4.6016
X4.6648Y-4.3016
X4.6648Y-4.6016
X4.7648Y-4.3016
X4.7648Y-4.6016
X5.7929Y-3.7855
X5.7929Y-4.0855
X5.8929Y-3.7855
X5.8929Y-4.0855
X5.9929Y-3.7855
X5.9929Y-4.0855
X6.0929Y-3.7855
X6.0929Y-4.0855
X6.1929Y-3.7855
X6.1929Y-4.0855
X6.2929Y-3.7855
X6.2929Y-4.0855
X6.3929Y-3.7855
X6.3929Y-4.0855
X8.203Y-4.019
X8.203Y-4.2159
T5
X4.13Y-4.8
X4.13Y-5.2
X5.889Y-4.28
X6.289Y-4.28
X6.093Y-3.589
X6.493Y-3.589
X6.409Y-4.261
X6.409Y-4.661
X6.8Y-2.986
X7.2Y-2.986
X5.13Y-4.41
X5.13Y-4.81
X8.31Y-5.1
X8.41Y-5.1
X3.95Y-4.3
X3.95Y-4.7
X5.572Y-3.786
X5.572Y-4.186
X4.79Y-4.8
X4.79Y-5.2
X6.588Y-3.93
X6.588Y-4.33
X6.8Y-3.281
X7.2Y-3.281
X8.0315Y-5.5906
X8.4315Y-5.5906
X4.96Y-4.41
X4.96Y-4.81
X5.751Y-4.262
X5.751Y-4.662
X6.586Y-2.984
X6.586Y-3.384
X6.751Y-3.93
X6.751Y-4.33
X4.265Y-4.816
X4.665Y-4.816
X3.96Y-4.11
X4.36Y-4.11
X5.56Y-3.589
X5.96Y-3.589
X4.52Y-4.106
X4.92Y-4.106
T6
X5.316Y-3.802
X2.761Y-4.804
X7.8495Y-3.8216
X7.9495Y-3.8216
X8.0495Y-3.8216
X3.941Y-2.952
X3.941Y-3.052
X3.941Y-3.152
X3.941Y-3.252
X3.941Y-3.352
X3.941Y-3.452
X3.941Y-3.552
X3.941Y-3.652
X3.941Y-3.752
X3.941Y-3.852
X4.177Y-2.952
X4.177Y-3.052
X4.177Y-3.152
X4.177Y-3.252
X4.177Y-3.352
X4.177Y-3.452
X4.177Y-3.552
X4.177Y-3.652
X4.177Y-3.752
X4.177Y-3.852
X2.983Y-4.568
X5.321Y-3.428
X2.044Y-5.226
X2.4496Y-2.9524
X2.4496Y-3.0524
X2.4496Y-3.1524
X2.4496Y-3.2524
X2.4496Y-3.3524
X2.4496Y-3.4524
X2.4496Y-3.5524
X2.4496Y-3.6524
X2.4496Y-3.7524
X2.4496Y-3.8524
X2.2134Y-2.9548
X2.2134Y-3.0548
X2.2134Y-3.1548
X2.2134Y-3.2548
X2.2134Y-3.3548
X2.2134Y-3.4548
X2.2134Y-3.5548
X2.2134Y-3.6548
X2.2134Y-3.7548
X2.2134Y-3.8548
X2.978Y-4.977
T7
X2.7358Y-3.152
X2.7358Y-3.252
X2.7358Y-3.352
X2.7358Y-3.452
X2.7358Y-3.552
X2.7358Y-3.652
X2.7358Y-3.752
X2.7358Y-3.852
X3.6358Y-3.152
X3.6358Y-3.252
X3.6358Y-3.352
X3.6358Y-3.452
X3.6358Y-3.552
X3.6358Y-3.652
X3.6358Y-3.752
X3.6358Y-3.852
T8
X2.3346Y-4.9961
X2.4346Y-4.9961
X2.5346Y-4.9961
X1.7756Y-4.9961
X1.8756Y-4.9961
X1.9756Y-4.9961
X8.5509Y-3.1796
X8.5509Y-3.2796
X8.5509Y-3.3796
T9
X7.484Y-3.282
X7.484Y-4.482
T10
X1.8504Y-5.5118
X2.0472Y-5.5118
X3.0315Y-5.5118
X3.2283Y-5.5118
X3.4252Y-5.5118
X3.622Y-5.5118
X5.0787Y-5.5118
X5.2756Y-5.5118
X5.4724Y-5.5118
X5.6693Y-5.5118
X7.3622Y-5.5118
X7.5591Y-5.5118
X6.1024Y-5.5118
X6.2992Y-5.5118
X6.4961Y-5.5118
X6.6929Y-5.5118
X4.0551Y-5.5118
X4.252Y-5.5118
X4.4488Y-5.5118
X4.6457Y-5.5118
X2.3622Y-5.5118
X2.5591Y-5.5118
T4
G00X8.374Y-5.7874
M15
G01X8.4764Y-5.7874
M16
G05
G00X8.3819Y-6.0157
M15
G01X8.4685Y-6.0157
M16
G05
G00X8.6142Y-5.9488
M15
G01X8.6142Y-5.8622
M16
G05
T0
M30
